<svg width="160" height="24" viewBox="0 0 160 24" fill="none" xmlns="http://www.w3.org/2000/svg">
<path d="M2.14387 4.74525L11.2492 17.3343C11.3962 17.5375 11.6972 17.5424 11.8507 17.344L21.6515 4.67471C21.8706 4.39143 22.3242 4.5464 22.3242 4.90456L22.3242 19.1013C22.3242 19.4589 21.8718 19.6142 21.6522 19.332L11.8499 6.74058C11.6965 6.54343 11.3969 6.54827 11.2498 6.75028L2.14321 19.262C1.92917 19.556 1.46387 19.4046 1.46387 19.0409L1.46387 4.96539C1.46387 4.60109 1.93037 4.45006 2.14387 4.74525Z" stroke="#3D3D3D" stroke-width="2.92683" stroke-linecap="round"/>
<line x1="32.5685" y1="0.878049" x2="32.5685" y2="23.122" stroke="#2E2E2E" stroke-width="1.7561" stroke-linecap="round"/>
<path d="M47.405 15.5574L50.0364 17.6412L48.7741 18.7365L46.1828 16.6527L47.405 15.5574ZM50.1032 11.9107V12.3716C50.1032 13.1107 50.0031 13.7741 49.8027 14.3619C49.6068 14.9496 49.324 15.4505 48.9545 15.8646C48.5849 16.2742 48.1486 16.5881 47.6454 16.8063C47.1423 17.0245 46.5835 17.1336 45.969 17.1336C45.359 17.1336 44.8002 17.0245 44.2926 16.8063C43.785 16.5881 43.3465 16.2742 42.9769 15.8646C42.6073 15.4505 42.3202 14.9496 42.1153 14.3619C41.915 13.7741 41.8148 13.1107 41.8148 12.3716V11.9107C41.8148 11.1671 41.915 10.5037 42.1153 9.92042C42.3202 9.33268 42.6051 8.83177 42.9702 8.41768C43.3353 8.00359 43.7717 7.68746 44.2793 7.46929C44.7869 7.25111 45.3457 7.14202 45.9557 7.14202C46.5701 7.14202 47.1289 7.25111 47.6321 7.46929C48.1397 7.68746 48.5782 8.00359 48.9478 8.41768C49.3174 8.83177 49.6023 9.33268 49.8027 9.92042C50.0031 10.5037 50.1032 11.1671 50.1032 11.9107ZM48.0795 12.3716V11.8974C48.0795 11.3809 48.0306 10.9267 47.9326 10.5349C47.8391 10.1431 47.7011 9.81356 47.5185 9.54641C47.3404 9.27925 47.12 9.07889 46.8573 8.94531C46.5946 8.80728 46.2941 8.73827 45.9557 8.73827C45.6173 8.73827 45.3167 8.80728 45.054 8.94531C44.7913 9.07889 44.5709 9.27925 44.3928 9.54641C44.2147 9.81356 44.0789 10.1431 43.9854 10.5349C43.8919 10.9267 43.8452 11.3809 43.8452 11.8974V12.3716C43.8452 12.8836 43.8919 13.3378 43.9854 13.734C44.0789 14.1259 44.2147 14.4576 44.3928 14.7292C44.5754 14.9963 44.798 15.1989 45.0607 15.337C45.3279 15.475 45.6306 15.544 45.969 15.544C46.3074 15.544 46.6057 15.475 46.864 15.337C47.1267 15.1989 47.3471 14.9963 47.5252 14.7292C47.7078 14.4576 47.8458 14.1259 47.9393 13.734C48.0328 13.3378 48.0795 12.8836 48.0795 12.3716ZM61.7097 7.2756H63.7067V13.7006C63.7067 14.4487 63.5464 15.0787 63.2258 15.5908C62.9097 16.1028 62.4711 16.488 61.9101 16.7462C61.3535 17.0045 60.7124 17.1336 59.9866 17.1336C59.2608 17.1336 58.6152 17.0045 58.0497 16.7462C57.4887 16.488 57.0479 16.1028 56.7273 15.5908C56.4112 15.0787 56.2531 14.4487 56.2531 13.7006V7.2756H58.2568V13.7006C58.2568 14.137 58.3258 14.4932 58.4638 14.7693C58.6018 15.0453 58.8 15.2479 59.0582 15.377C59.3209 15.5062 59.6304 15.5707 59.9866 15.5707C60.3517 15.5707 60.6612 15.5062 60.915 15.377C61.1732 15.2479 61.3691 15.0453 61.5027 14.7693C61.6407 14.4932 61.7097 14.137 61.7097 13.7006V7.2756ZM76.669 15.4371V17H71.4929V15.4371H76.669ZM72.1474 7.2756V17H70.1438V7.2756H72.1474ZM75.9945 11.2362V12.7589H71.4929V11.2362H75.9945ZM76.6623 7.2756V8.84513H71.4929V7.2756H76.6623ZM82.6252 7.2756H86.2518C86.9954 7.2756 87.6343 7.38691 88.1687 7.60954C88.7074 7.83217 89.1215 8.16166 89.4109 8.59801C89.7003 9.03436 89.845 9.5709 89.845 10.2076C89.845 10.7286 89.756 11.176 89.5779 11.5501C89.4042 11.9196 89.1571 12.2291 88.8365 12.4784C88.5204 12.7233 88.1486 12.9192 87.7212 13.0662L87.0867 13.4001H83.9343L83.9209 11.8373H86.2652C86.6169 11.8373 86.9086 11.7749 87.1401 11.6502C87.3716 11.5256 87.5453 11.3519 87.6611 11.1293C87.7813 10.9067 87.8414 10.6484 87.8414 10.3545C87.8414 10.0429 87.7835 9.77349 87.6677 9.54641C87.552 9.31933 87.3761 9.14568 87.1401 9.02546C86.9041 8.90524 86.608 8.84513 86.2518 8.84513H84.6289V17H82.6252V7.2756ZM88.0618 17L85.8444 12.6654L87.9616 12.6521L90.2057 16.9065V17H88.0618ZM104.163 11.9107V12.3716C104.163 13.1107 104.063 13.7741 103.863 14.3619C103.662 14.9496 103.38 15.4505 103.014 15.8646C102.649 16.2742 102.213 16.5881 101.705 16.8063C101.202 17.0245 100.643 17.1336 100.029 17.1336C99.4189 17.1336 98.8601 17.0245 98.3526 16.8063C97.8494 16.5881 97.4131 16.2742 97.0435 15.8646C96.6739 15.4505 96.3867 14.9496 96.1819 14.3619C95.9816 13.7741 95.8814 13.1107 95.8814 12.3716V11.9107C95.8814 11.1671 95.9816 10.5037 96.1819 9.92042C96.3823 9.33268 96.665 8.83177 97.0301 8.41768C97.3997 8.00359 97.8361 7.68746 98.3392 7.46929C98.8468 7.25111 99.4056 7.14202 100.016 7.14202C100.63 7.14202 101.189 7.25111 101.692 7.46929C102.2 7.68746 102.636 8.00359 103.001 8.41768C103.371 8.83177 103.656 9.33268 103.856 9.92042C104.061 10.5037 104.163 11.1671 104.163 11.9107ZM102.139 12.3716V11.8974C102.139 11.3809 102.093 10.9267 101.999 10.5349C101.906 10.1431 101.768 9.81356 101.585 9.54641C101.403 9.27925 101.18 9.07889 100.917 8.94531C100.655 8.80728 100.354 8.73827 100.016 8.73827C99.6772 8.73827 99.3766 8.80728 99.1139 8.94531C98.8557 9.07889 98.6353 9.27925 98.4527 9.54641C98.2746 9.81356 98.1388 10.1431 98.0453 10.5349C97.9518 10.9267 97.9051 11.3809 97.9051 11.8974V12.3716C97.9051 12.8836 97.9518 13.3378 98.0453 13.734C98.1388 14.1259 98.2769 14.4576 98.4594 14.7292C98.642 14.9963 98.8646 15.1989 99.1273 15.337C99.39 15.475 99.6906 15.544 100.029 15.544C100.367 15.544 100.668 15.475 100.931 15.337C101.193 15.1989 101.414 14.9963 101.592 14.7292C101.77 14.4576 101.906 14.1259 101.999 13.734C102.093 13.3378 102.139 12.8836 102.139 12.3716Z" fill="#A3A3A3"/>
<path d="M116.03 13.7741H118.027C117.987 14.4286 117.807 15.0097 117.486 15.5173C117.17 16.0249 116.727 16.4212 116.157 16.7061C115.592 16.9911 114.91 17.1336 114.113 17.1336C113.49 17.1336 112.931 17.0267 112.437 16.813C111.943 16.5948 111.52 16.2831 111.168 15.878C110.821 15.4728 110.556 14.983 110.373 14.4086C110.191 13.8342 110.099 13.1908 110.099 12.4784V11.8039C110.099 11.0914 110.193 10.4481 110.38 9.87367C110.571 9.29484 110.843 8.80283 111.195 8.39765C111.551 7.99246 111.976 7.68078 112.47 7.46261C112.965 7.24443 113.517 7.13534 114.127 7.13534C114.937 7.13534 115.62 7.28228 116.177 7.57615C116.738 7.87002 117.172 8.2752 117.479 8.7917C117.791 9.30819 117.978 9.89593 118.04 10.5549H116.037C116.015 10.1631 115.937 9.83137 115.803 9.55976C115.669 9.28371 115.467 9.07666 115.195 8.93863C114.928 8.79615 114.572 8.72491 114.127 8.72491C113.793 8.72491 113.501 8.78724 113.252 8.91192C113.002 9.03659 112.793 9.22582 112.624 9.47962C112.455 9.73341 112.328 10.054 112.243 10.4414C112.163 10.8243 112.123 11.274 112.123 11.7905V12.4784C112.123 12.9816 112.161 13.4246 112.237 13.8075C112.312 14.186 112.428 14.5066 112.584 14.7693C112.744 15.0275 112.949 15.2234 113.198 15.357C113.452 15.4861 113.757 15.5507 114.113 15.5507C114.532 15.5507 114.877 15.4839 115.149 15.3503C115.42 15.2167 115.627 15.0186 115.77 14.7559C115.917 14.4932 116.003 14.1659 116.03 13.7741ZM132.118 11.9107V12.3716C132.118 13.1107 132.018 13.7741 131.818 14.3619C131.617 14.9496 131.334 15.4505 130.969 15.8646C130.604 16.2742 130.168 16.5881 129.66 16.8063C129.157 17.0245 128.598 17.1336 127.984 17.1336C127.374 17.1336 126.815 17.0245 126.308 16.8063C125.804 16.5881 125.368 16.2742 124.998 15.8646C124.629 15.4505 124.342 14.9496 124.137 14.3619C123.937 13.7741 123.836 13.1107 123.836 12.3716V11.9107C123.836 11.1671 123.937 10.5037 124.137 9.92042C124.337 9.33268 124.62 8.83177 124.985 8.41768C125.355 8.00359 125.791 7.68746 126.294 7.46929C126.802 7.25111 127.361 7.14202 127.971 7.14202C128.585 7.14202 129.144 7.25111 129.647 7.46929C130.155 7.68746 130.591 8.00359 130.956 8.41768C131.326 8.83177 131.611 9.33268 131.811 9.92042C132.016 10.5037 132.118 11.1671 132.118 11.9107ZM130.094 12.3716V11.8974C130.094 11.3809 130.048 10.9267 129.954 10.5349C129.861 10.1431 129.723 9.81356 129.54 9.54641C129.358 9.27925 129.135 9.07889 128.872 8.94531C128.61 8.80728 128.309 8.73827 127.971 8.73827C127.632 8.73827 127.332 8.80728 127.069 8.94531C126.811 9.07889 126.59 9.27925 126.408 9.54641C126.23 9.81356 126.094 10.1431 126 10.5349C125.907 10.9267 125.86 11.3809 125.86 11.8974V12.3716C125.86 12.8836 125.907 13.3378 126 13.734C126.094 14.1259 126.232 14.4576 126.414 14.7292C126.597 14.9963 126.82 15.1989 127.082 15.337C127.345 15.475 127.646 15.544 127.984 15.544C128.322 15.544 128.623 15.475 128.886 15.337C129.148 15.1989 129.369 14.9963 129.547 14.7292C129.725 14.4576 129.861 14.1259 129.954 13.734C130.048 13.3378 130.094 12.8836 130.094 12.3716ZM141.334 17H139.216L139.23 15.4371H141.334C141.859 15.4371 142.302 15.3192 142.663 15.0832C143.023 14.8427 143.295 14.4932 143.478 14.0346C143.665 13.576 143.758 13.0216 143.758 12.3716V11.8974C143.758 11.3987 143.705 10.9601 143.598 10.5816C143.495 10.2032 143.342 9.8848 143.137 9.62655C142.932 9.3683 142.681 9.17462 142.382 9.04549C142.084 8.91192 141.741 8.84513 141.354 8.84513H139.176V7.2756H141.354C142.004 7.2756 142.598 7.38691 143.137 7.60954C143.68 7.82772 144.15 8.14162 144.546 8.55126C144.942 8.96089 145.247 9.45068 145.461 10.0206C145.679 10.5861 145.788 11.2161 145.788 11.9107V12.3716C145.788 13.0617 145.679 13.6917 145.461 14.2617C145.247 14.8316 144.942 15.3214 144.546 15.731C144.154 16.1362 143.685 16.4501 143.137 16.6727C142.594 16.8909 141.993 17 141.334 17ZM140.352 7.2756V17H138.348V7.2756H140.352ZM158.557 15.4371V17H153.381V15.4371H158.557ZM154.035 7.2756V17H152.032V7.2756H154.035ZM157.882 11.2362V12.7589H153.381V11.2362H157.882ZM158.55 7.2756V8.84513H153.381V7.2756H158.55Z" fill="#3D3D3D"/>
</svg>
